<svg xmlns="http://www.w3.org/2000/svg" viewBox="0 0 278.68 61.78"><title>Asset 3</title><g id="Layer_2" data-name="Layer 2"><g id="Layer_1-2" data-name="Layer 1"><path d="M1.23,20.09a15.43,15.43,0,0,0-.65-1.94A7.86,7.86,0,0,1,.15,13.9a3.22,3.22,0,0,1,2.38-2.3,2.68,2.68,0,0,1,2.3,2.16c.29,1.15.29,2.45.5,3.6.14.79.29,2.74.94,3.31.07-.14.07-.22.14-.29.5-.65.36-2.38.36-3.24,0-1.15-.14-2.3-.14-3.53a27.75,27.75,0,0,0-.14-3.46C6.34,8.93,6.05,7.7,6,6.41A4.86,4.86,0,0,1,7.06,2.74c.86-.86,2.09-1.37,3-.36a4.38,4.38,0,0,1,1,3.24,30.91,30.91,0,0,0,.29,5.76c.86,4.32,1.73,9.43,4,13.25.58.94,1.22,2.74,2.3,3.24s3,0,4-.43c3-1.3,4.54-3.38,6.19-6.12a15,15,0,0,0,2.66-8.06,32.47,32.47,0,0,0,0-3.74,26.3,26.3,0,0,1-.36-4.1,3.48,3.48,0,0,1,3.1-3.31,2.17,2.17,0,0,1,1.94,1.3c.65,1.08.58,3.1.58,4.32.14,2.81.58,5.62.72,8.42.22,5.11.5,10.23.94,15.34a35.39,35.39,0,0,0,.65,4.82c.29,1.22,1.8,1.58,1.66,3-.14,2.16-3.53,5-5,2.3-.72-1.37-.72-3.17-1-4.68a33.49,33.49,0,0,1-.5-6.55,48.44,48.44,0,0,0-.43-5.62,1.3,1.3,0,0,0-1.08-1.22c-.58,0-.86.79-1.15,1.22-2.16,3.31-6.48,9.22-11.16,9.22a5.83,5.83,0,0,1-3.53-1.22A10.17,10.17,0,0,1,13,29.45a39.36,39.36,0,0,0-2.09-3.82c-1.3-1.58-1.37.86-1.37,1.73.07,1.73-.14,3.31-.14,5s-.14,3.53-.07,5.33a10.9,10.9,0,0,1-.5,5A2.14,2.14,0,0,1,6,44.07c-1.3-.36-1.94-.94-2-2.3s.14-2.88-.07-4.32a13.25,13.25,0,0,1-.22-2.38c0-1,.07-2.09,0-3.1-.22-1.58-.5-3-.72-4.54-.14-.79-.22-1.66-.36-2.45C2.31,23.33,1.66,21.67,1.23,20.09Z"/><path d="M67.83,38.31a4.9,4.9,0,0,1-.58,2.23,4.8,4.8,0,0,1-4,2.59,4.86,4.86,0,0,1-3.17-1.3c-.79-.72-1.37-2.38-2.59-2.3a7.89,7.89,0,0,0-4,1.8c-1.58,1.58-3.6,3-5.69,3a5,5,0,0,1-2.52-.72c-1.51-.94-2.45-1.8-2.74-3.6a19.84,19.84,0,0,1,.22-5.47,31.38,31.38,0,0,1,6-13c1.15-1.58,3.17-3.53,5.18-4S56,19,56.09,20.67c1-.14,1.8-.72,2.66.07s.65,2,.65,3a74.38,74.38,0,0,0,1.37,9.07l.29.86c.58,2.09,2.16,4.1,4.39,3.1C67.18,36,67.83,37,67.83,38.31ZM55.44,31A27.64,27.64,0,0,0,55,25.85c-.22-2.16-1.73-1.51-3-.36a16.12,16.12,0,0,0-4.61,11.16c0,1.51.58,2.09,1.44,2.09a5.31,5.31,0,0,0,2.88-1.37,13.54,13.54,0,0,0,3.6-4.9Z"/><path d="M77.84,37.3c.22,1.44.86,2.66.94,4.1s-.14,3.17-1.8,3.53c-1.87.43-2.66-1.15-2.88-2.52a92.11,92.11,0,0,1-.65-9.94c-.07-1.87-1.3-1.37-2.88-1.87a10.86,10.86,0,0,1-4.75-3.46,6.32,6.32,0,0,1-1.8-4.9c.14-1.15,1.08-3,2.66-2.88s1.66,1.8,2.09,2.88a5.21,5.21,0,0,0,2.74,2.66c.65.14.86-1,.86-2.45a32.75,32.75,0,0,0-.5-5.26A10.67,10.67,0,0,1,71.64,15c0-2.23.58-4.75,2.52-6,1.22-.72,3,.5,3.1,1.66.36,1.8-.14,3.67-.29,5.47a31.31,31.31,0,0,0-.14,3.67v2.52c-.07.94,0,3.17,1.15,3.74,1.37.58,3.6-1.15,4.75-1.73a9.33,9.33,0,0,0,3.24-3c.72-1,.79-3,1.73-3.74,1.37-1,2.81,1.73,2.81,2.74,0,3.31-2.3,5-4.82,7.06a21.74,21.74,0,0,1-3.74,2.3c-3.53,1.87-4.39.86-4.39,4.61C77.62,35.28,77.69,36.29,77.84,37.3Z"/><path d="M100.8,37.3c.22,1.44.86,2.66.94,4.1s-.14,3.17-1.8,3.53c-1.87.43-2.66-1.15-2.88-2.52a92.11,92.11,0,0,1-.65-9.94c-.07-1.87-1.3-1.37-2.88-1.87a10.86,10.86,0,0,1-4.75-3.46,6.32,6.32,0,0,1-1.8-4.9c.14-1.15,1.08-3,2.66-2.88s1.66,1.8,2.09,2.88a5.21,5.21,0,0,0,2.74,2.66c.65.14.86-1,.86-2.45a32.75,32.75,0,0,0-.5-5.26A10.67,10.67,0,0,1,94.61,15c0-2.23.58-4.75,2.52-6,1.22-.72,3,.5,3.1,1.66.36,1.8-.14,3.67-.29,5.47a31.31,31.31,0,0,0-.14,3.67v2.52c-.07.94,0,3.17,1.15,3.74,1.37.58,3.6-1.15,4.75-1.73a9.33,9.33,0,0,0,3.24-3c.72-1,.79-3,1.73-3.74,1.37-1,2.81,1.73,2.81,2.74,0,3.31-2.3,5-4.82,7.06a21.74,21.74,0,0,1-3.74,2.3c-3.53,1.87-4.39.86-4.39,4.61C100.59,35.28,100.66,36.29,100.8,37.3Z"/><path d="M136.37,16.13a15.83,15.83,0,0,1,.58-2.52c.43-1.58,1-3.6,2.38-4.68,1-.79,2.23-.94,3,.29.65,1,.14,2.45-.07,3.53-.65,4.1-2,8.21-2.45,12.39a55,55,0,0,0-.29,6.91,11,11,0,0,0,.58,2.66,4.45,4.45,0,0,0,.58,1.73c.86,1,2.66.07,3.53-.5a14.08,14.08,0,0,0,4-4,20,20,0,0,0,1.8-4.46,26.71,26.71,0,0,0,1.3-5.26,27.56,27.56,0,0,1,.58-4.82c.5-1.37,1.08-3.17,2.23-4,2.59-1.94,5.47.58,4.68,3.38-.36,1.51-1.15,3-1.58,4.46A35.3,35.3,0,0,0,156,26.71a40.68,40.68,0,0,0-.29,4.18,21,21,0,0,0,.65,5.26,3.3,3.3,0,0,0,2,2.52,6.11,6.11,0,0,0,3.38.36,14.9,14.9,0,0,0,8.28-4c1.8-2,3.67-4.68,4.18-7.34a17.19,17.19,0,0,0,.5-4.75c-.22-1.66-.72-3.38-1.08-5-.86-3.67-2.16-7-5-9.5-.72-.58-1.37-1.3-2.09-1.87A10,10,0,0,1,164.67,5a3.14,3.14,0,0,1-.58-3.31A2.84,2.84,0,0,1,166.76,0a6.45,6.45,0,0,1,4.1,1.94,33.58,33.58,0,0,1,7.2,11,26.94,26.94,0,0,1,2.45,10.22,16,16,0,0,1-.43,3.67,20.93,20.93,0,0,1-2.59,6.26,24.11,24.11,0,0,1-4.32,5,27,27,0,0,1-5.62,3.89,14,14,0,0,1-5.83,2.16c-3,.36-6.91-.14-9-2.66a8.67,8.67,0,0,1-1.51-3.67c-.29-1.44-.79-1.66-1.87-.65-1.87,1.8-3.67,3.82-6.12,5a7.79,7.79,0,0,1-3.38.79,4.53,4.53,0,0,1-3.74-1.73,6.82,6.82,0,0,1-1.08-4c-.14-1.73-.14-3.46-.14-5.18,0-1.22-.07-2.45-.07-3.6,0-.86.07-1.73.14-2.59.07-1.22.43-2.45.58-3.6C135.8,20.16,135.94,18.15,136.37,16.13Z"/><path d="M208.52,38.31a4.9,4.9,0,0,1-.58,2.23,4.8,4.8,0,0,1-4,2.59,4.86,4.86,0,0,1-3.17-1.3c-.79-.72-1.37-2.38-2.59-2.3a7.89,7.89,0,0,0-4,1.8c-1.58,1.58-3.6,3-5.69,3a5,5,0,0,1-2.52-.72c-1.51-.94-2.45-1.8-2.74-3.6a19.84,19.84,0,0,1,.22-5.47,31.38,31.38,0,0,1,6-13c1.15-1.58,3.17-3.53,5.18-4s2.16,1.44,2.23,3.1c1-.14,1.8-.72,2.66.07s.65,2,.65,3a74.38,74.38,0,0,0,1.37,9.07l.29.86c.58,2.09,2.16,4.1,4.39,3.1C207.87,36,208.52,37,208.52,38.31ZM196.13,31a27.64,27.64,0,0,0-.43-5.11c-.22-2.16-1.73-1.51-3-.36a16.12,16.12,0,0,0-4.61,11.16c0,1.51.58,2.09,1.44,2.09a5.31,5.31,0,0,0,2.88-1.37,13.54,13.54,0,0,0,3.6-4.9Z"/><path d="M232.64,49a10.58,10.58,0,0,1-.29,2.59c-.79,3.53-1.73,6.48-5,8.42a13.38,13.38,0,0,1-6.62,1.73c-4.39,0-8.78-2.09-10.8-6.41a18.65,18.65,0,0,1-1.94-7,6.21,6.21,0,0,1,.58-2.59c.58-1.22,2.23-2.23,2.66-.43.36,1.37.14,2.74.58,4.1.94,3.17,3.53,5.26,6.41,6.48a8.47,8.47,0,0,0,3.6.72,5.33,5.33,0,0,0,5-2.52,7.45,7.45,0,0,0,.79-3.53,33,33,0,0,0-.72-5.26c-.58-2.81-1.15-5.69-1.87-8.42-.43-1.73-1.08-1.73-2.45-.86a23.25,23.25,0,0,1-3.1,2.09,13,13,0,0,1-5.4,1.3,5.49,5.49,0,0,1-2.45-.43c-1.87-.79-2.38-2.45-2.38-4.25a13.92,13.92,0,0,1,.36-3,24.78,24.78,0,0,1,4.18-9.43c2.16-2.59,5.18-6,8.71-6.41s6.7,1.51,7.42,5.18c.58,3.17-.72,6.41-.58,9.58a62.48,62.48,0,0,0,2.09,12.17A20.57,20.57,0,0,1,232.64,49ZM223.78,21.6c-1-.86-3,.65-3.74,1.22a10.26,10.26,0,0,0-1.87,1.66,13.9,13.9,0,0,0-2.81,4.39c-.5,1.08-1.58,3.82-.22,4.68,1.87,1.22,4.39-.79,5.76-2.09,1.58-1.44,2.38-3.67,3-5.83C224.14,24.7,224.64,22.39,223.78,21.6Z"/><path d="M259.28,38.31a4.9,4.9,0,0,1-.58,2.23,4.8,4.8,0,0,1-4,2.59,4.86,4.86,0,0,1-3.17-1.3c-.79-.72-1.37-2.38-2.59-2.3a7.89,7.89,0,0,0-4,1.8c-1.58,1.58-3.6,3-5.69,3a5,5,0,0,1-2.52-.72c-1.51-.94-2.45-1.8-2.74-3.6a19.82,19.82,0,0,1,.22-5.47,31.38,31.38,0,0,1,6-13c1.15-1.58,3.17-3.53,5.18-4s2.16,1.44,2.23,3.1c1-.14,1.8-.72,2.66.07s.65,2,.65,3a74.38,74.38,0,0,0,1.37,9.07l.29.86c.58,2.09,2.16,4.1,4.39,3.1C258.63,36,259.28,37,259.28,38.31ZM246.89,31a27.64,27.64,0,0,0-.43-5.11c-.22-2.16-1.73-1.51-3-.36a16.12,16.12,0,0,0-4.61,11.16c0,1.51.58,2.09,1.44,2.09a5.31,5.31,0,0,0,2.88-1.37,13.54,13.54,0,0,0,3.6-4.9Z"/><path d="M262.44,22.11a2.8,2.8,0,0,1,3-.65c1,.5,1.22,3.17,2.23,2.81.5-.22,1.15-1.51,1.44-2a15.4,15.4,0,0,1,1.44-2.3c.86-1.15,2.45-2.88,4-2.81a5.2,5.2,0,0,1,3.6,2.52c.79,1.22.94,3.46-1.15,3.1-.79-.07-1.22-.65-2.09-.65s-1.3,1-2.3,2.3a18.38,18.38,0,0,0-3,5.9,45.05,45.05,0,0,0-2.09,8.57c-.29,1.94-.72,4.54-2.81,5.26s-2.74-1.37-2.59-3c.22-2.23.29-4.54.29-6.77,0-1.44-.07-3-.14-4.46C262.15,29.09,261.72,23.19,262.44,22.11Z"/></g></g></svg>