<?xml version="1.0" encoding="utf-8"?>
<!-- Generator: Adobe Illustrator 21.0.0, SVG Export Plug-In . SVG Version: 6.00 Build 0)  -->
<svg version="1.1" id="Layer_1" xmlns="http://www.w3.org/2000/svg" xmlns:xlink="http://www.w3.org/1999/xlink" x="0px" y="0px"
	 viewBox="0 0 1920 1080" style="enable-background:new 0 0 1920 1080;" xml:space="preserve">
<g>
	<path d="M319.4,121.3c-0.1-0.7-0.4-1.3-0.6-1.9c-0.4-1.3-0.8-3-0.4-4.2c0.2-0.9,1.3-2.2,2.4-2.3c1.2,0,2.1,1.2,2.3,2.2
		c0.3,1.2,0.3,2.4,0.5,3.6c0.1,0.8,0.3,2.7,0.9,3.3c0.1-0.1,0.1-0.2,0.1-0.3c0.5-0.6,0.4-2.4,0.4-3.2c0-1.2-0.1-2.3-0.1-3.5
		c0-1.2,0-2.3-0.1-3.5c-0.1-1.2-0.4-2.4-0.5-3.7c-0.1-1.3,0.1-2.7,1.1-3.7c0.9-0.9,2.1-1.4,3-0.4c0.9,0.9,1,2,1,3.2
		c0,1.9-0.1,3.8,0.3,5.8c0.9,4.3,1.7,9.4,4,13.2c0.6,0.9,1.2,2.7,2.3,3.2c1.1,0.6,3,0,4-0.4c3-1.3,4.5-3.4,6.2-6.1
		c1.6-2.6,2.7-5,2.7-8.1c0-1.3,0.1-2.5,0-3.7c-0.1-1.4-0.4-2.7-0.4-4.1c0.1-1.7,1.6-3.3,3.1-3.3c0.7,0,1.4,0.4,1.9,1.3
		c0.6,1.1,0.6,3.1,0.6,4.3c0.1,2.8,0.6,5.6,0.7,8.4c0.2,5.1,0.5,10.2,0.9,15.3c0.1,1.6,0.3,3.3,0.6,4.8c0.3,1.2,1.8,1.6,1.7,3
		c-0.1,2.2-3.5,5-5,2.3c-0.7-1.4-0.7-3.2-1-4.7c-0.5-2.2-0.4-4.3-0.5-6.6c0-1.9-0.1-2.7-0.4-5.6c0-0.5-0.5-1.2-1.1-1.2
		c-0.6,0-0.9,0.8-1.2,1.2c-2.2,3.3-6.5,9.2-11.2,9.2c-1.2,0-2.4-0.4-3.5-1.2c-1.2-0.8-2-2-2.8-3.2c-0.7-1.2-1.2-2.7-2.1-3.8
		c-1.3-1.6-1.4,0.9-1.4,1.7c0.1,1.7-0.1,3.3-0.1,5c0,1.8-0.1,3.5-0.1,5.3c0.1,1.7,0.2,3.4-0.5,5c-0.6,1.3-1.5,1.8-2.9,1.4
		c-1.3-0.4-1.9-0.9-2-2.3c-0.1-1.4,0.1-2.9-0.1-4.3c-0.1-0.8-0.2-1.6-0.2-2.4c0-1,0.1-2.1,0-3.1c-0.2-1.6-0.5-3-0.7-4.5
		c-0.1-0.8-0.2-1.7-0.4-2.4C320.5,124.5,319.8,122.8,319.4,121.3z"/>
	<path d="M386,139.5c0,0.7-0.2,1.6-0.6,2.2c-1,1.7-2.4,2.6-4,2.6c-1.1,0-2.2-0.4-3.2-1.3c-0.8-0.7-1.4-2.4-2.6-2.3c-1,0-3.3,1-4,1.8
		c-1.6,1.6-3.6,3-5.7,3c-0.8,0-1.7-0.2-2.5-0.7c-1.5-0.9-2.4-1.8-2.7-3.6c-0.2-1.8-0.1-3.7,0.2-5.5c0.9-4.7,3.1-9.1,6-13
		c1.2-1.6,3.2-3.5,5.2-4c2.1-0.5,2.2,1.4,2.2,3.1c1-0.1,1.8-0.7,2.7,0.1c0.8,0.7,0.6,2,0.6,3c0.3,3.8,0.9,6.3,1.4,9.1l0.3,0.9
		c0.6,2.1,2.2,4.1,4.4,3.1C385.4,137.2,386,138.2,386,139.5z M373.6,132.1c0.1-1.7-0.3-3.8-0.4-5.1c-0.2-2.2-1.7-1.5-3-0.4
		c-2.9,2.7-4.6,7.3-4.6,11.2c0,1.5,0.6,2.1,1.4,2.1c0.9,0,2-0.6,2.9-1.4c1.6-1.4,2.7-2.9,3.6-4.9L373.6,132.1z"/>
	<path d="M396,138.5c0.2,1.4,0.9,2.7,0.9,4.1c0.1,1.4-0.1,3.2-1.8,3.5c-1.9,0.4-2.7-1.2-2.9-2.5c-0.5-3.3-0.5-6.6-0.6-9.9
		c-0.1-1.9-1.3-1.4-2.9-1.9c-1.9-0.6-3.5-2-4.8-3.5c-1.2-1.3-2-3.2-1.8-4.9c0.1-1.2,1.1-3,2.7-2.9c1.7,0.1,1.7,1.8,2.1,2.9
		c0.4,0.9,1.7,2.4,2.7,2.7c0.6,0.1,0.9-1,0.9-2.4c0-2-0.4-4.6-0.5-5.3c-0.1-0.6-0.2-1.4-0.2-2.2c0-2.2,0.6-4.8,2.5-6
		c1.2-0.7,3,0.5,3.1,1.7c0.4,1.8-0.1,3.7-0.3,5.5c-0.1,1.2-0.1,2.4-0.1,3.7c0,0.9,0,1.7,0,2.5c-0.1,0.9,0,3.2,1.2,3.7
		c1.4,0.6,3.6-1.2,4.8-1.7c1.3-0.6,2.4-1.9,3.2-3c0.7-1,0.8-3,1.7-3.7c1.4-1,2.8,1.7,2.8,2.7c0,3.3-2.3,5-4.8,7.1
		c-1.2,0.9-2.4,1.7-3.7,2.3c-3.5,1.9-4.4,0.9-4.4,4.6C395.8,136.4,395.9,137.5,396,138.5z"/>
	<path d="M419,138.5c0.2,1.4,0.9,2.7,0.9,4.1c0.1,1.4-0.1,3.2-1.8,3.5c-1.9,0.4-2.7-1.2-2.9-2.5c-0.5-3.3-0.5-6.6-0.6-9.9
		c-0.1-1.9-1.3-1.4-2.9-1.9c-1.9-0.6-3.5-2-4.8-3.5c-1.2-1.3-2-3.2-1.8-4.9c0.1-1.2,1.1-3,2.7-2.9c1.7,0.1,1.7,1.8,2.1,2.9
		c0.4,0.9,1.7,2.4,2.7,2.7c0.6,0.1,0.9-1,0.9-2.4c0-2-0.4-4.6-0.5-5.3c-0.1-0.6-0.2-1.4-0.2-2.2c0-2.2,0.6-4.8,2.5-6
		c1.2-0.7,3,0.5,3.1,1.7c0.4,1.8-0.1,3.7-0.3,5.5c-0.1,1.2-0.1,2.4-0.1,3.7c0,0.9,0,1.7,0,2.5c-0.1,0.9,0,3.2,1.2,3.7
		c1.4,0.6,3.6-1.2,4.8-1.7c1.3-0.6,2.4-1.9,3.2-3c0.7-1,0.8-3,1.7-3.7c1.4-1,2.8,1.7,2.8,2.7c0,3.3-2.3,5-4.8,7.1
		c-1.2,0.9-2.4,1.7-3.7,2.3c-3.5,1.9-4.4,0.9-4.4,4.6C418.8,136.4,418.8,137.5,419,138.5z"/>
	<path d="M454.5,117.3c0.1-0.9,0.3-1.7,0.6-2.5c0.4-1.6,1-3.6,2.4-4.7c1-0.8,2.2-0.9,3,0.3c0.6,1,0.1,2.4-0.1,3.5
		c-0.6,4.1-2,8.2-2.4,12.4c-0.2,2.2-0.4,4.6-0.3,6.9c0.1,0.9,0.3,1.8,0.6,2.7c0.1,0.6,0.2,1.3,0.6,1.7c0.9,1,2.7,0.1,3.5-0.5
		c1.5-0.9,3-2.4,4-4c0.9-1.4,1.3-3,1.8-4.5c0.6-1.7,1.1-3.5,1.3-5.3c0.1-1.5,0.1-3.3,0.6-4.8c0.5-1.4,1.1-3.2,2.2-4
		c2.6-1.9,5.5,0.6,4.7,3.4c-0.4,1.5-1.2,3-1.6,4.5c-0.6,1.8-0.9,3.6-1.2,5.5c-0.1,1.4-0.3,2.8-0.3,4.2c0,1.8,0.2,3.6,0.6,5.3
		c0.4,1.2,0.8,2,2,2.5c1.1,0.4,2.3,0.6,3.4,0.4c2.9-0.4,6.3-1.8,8.3-4c1.8-2,3.7-4.7,4.2-7.3c0.3-1.4,0.6-3.2,0.5-4.8
		c-0.2-1.7-0.7-3.4-1.1-5c-0.9-3.7-2.2-7-5-9.5c-0.7-0.6-1.4-1.3-2.1-1.9c-0.6-0.5-1.4-0.9-1.9-1.5c-0.7-0.9-1.2-2.2-0.6-3.3
		c0.6-1.3,1.7-1.7,2.7-1.7c1.4,0,3,0.9,4.1,1.9c3,3,5.5,7,7.2,11c1.4,3.3,2.4,6.7,2.4,10.2c0,1.2-0.1,2.4-0.4,3.7
		c-0.5,2.2-1.4,4.5-2.6,6.3c-1.1,1.7-2.4,3.2-4.3,5c-1.7,1.7-3.6,2.7-5.6,3.9c-1.8,1.1-3.7,1.9-5.8,2.2c-3,0.4-6.9-0.1-9-2.7
		c-0.8-1-1.3-2.4-1.5-3.7c-0.3-1.4-0.8-1.7-1.9-0.6c-1.9,1.8-3.7,3.8-6.1,5c-1,0.5-2.2,0.8-3.4,0.8c-1.4,0-2.8-0.5-3.7-1.7
		s-1-2.7-1.1-4c-0.1-1.7-0.1-3.5-0.1-5.2c0-1.2-0.1-2.4-0.1-3.6c0-0.9,0.1-1.7,0.1-2.6c0.1-1.2,0.4-2.4,0.6-3.6
		C454,121.3,454.1,119.3,454.5,117.3z"/>
	<path d="M526.7,139.5c0,0.7-0.2,1.6-0.6,2.2c-1,1.7-2.4,2.6-4,2.6c-1.1,0-2.2-0.4-3.2-1.3c-0.8-0.7-1.4-2.4-2.6-2.3
		c-1,0-3.3,1-4,1.8c-1.6,1.6-3.6,3-5.7,3c-0.8,0-1.7-0.2-2.5-0.7c-1.5-0.9-2.4-1.8-2.7-3.6c-0.2-1.8-0.1-3.7,0.2-5.5
		c0.9-4.7,3.1-9.1,6-13c1.2-1.6,3.2-3.5,5.2-4c2.1-0.5,2.2,1.4,2.2,3.1c1-0.1,1.8-0.7,2.7,0.1c0.8,0.7,0.6,2,0.6,3
		c0.3,3.8,0.9,6.3,1.4,9.1l0.3,0.9c0.6,2.1,2.2,4.1,4.4,3.1C526,137.2,526.7,138.2,526.7,139.5z M514.3,132.1
		c0.1-1.7-0.3-3.8-0.4-5.1c-0.2-2.2-1.7-1.5-3-0.4c-2.9,2.7-4.6,7.3-4.6,11.2c0,1.5,0.6,2.1,1.4,2.1c0.9,0,2-0.6,2.9-1.4
		c1.6-1.4,2.7-2.9,3.6-4.9L514.3,132.1z"/>
	<path d="M550.8,150.2c0,0.9-0.1,1.7-0.3,2.6c-0.8,3.5-1.7,6.5-5,8.4c-2,1.2-4.3,1.7-6.6,1.7c-4.4,0-8.8-2.1-10.8-6.4
		c-0.9-1.9-1.9-4.6-1.9-7c0-0.9,0.2-1.8,0.6-2.6c0.6-1.2,2.2-2.2,2.7-0.4c0.4,1.4,0.1,2.7,0.6,4.1c0.9,3.2,3.5,5.3,6.4,6.5
		c1.1,0.5,2.3,0.7,3.6,0.7c2,0,4-0.7,5-2.5c0.6-1.1,0.8-2.3,0.8-3.5c0-1.7-0.4-3.5-0.7-5.3c-0.6-2.8-1.2-5.7-1.9-8.4
		c-0.4-1.7-1.1-1.7-2.4-0.9c-1,0.7-1.9,1.5-3.1,2.1c-1.4,0.7-3.5,1.3-5.4,1.3c-0.9,0-1.7-0.1-2.4-0.4c-1.9-0.8-2.4-2.4-2.4-4.2
		c0-1,0.1-2.1,0.4-3c0.7-3.2,2.2-6.9,4.2-9.4c2.2-2.6,5.2-6,8.7-6.4c3.5-0.4,6.7,1.5,7.4,5.2c0.6,3.2-0.7,6.4-0.6,9.6
		c0.1,4,1.1,8,2.1,12.2C550.2,146.1,550.8,148,550.8,150.2z M542,122.8c-1-0.9-3,0.6-3.7,1.2c-0.7,0.5-1.3,1-1.9,1.7
		c-1.2,1.4-2.1,2.6-2.8,4.4c-0.5,1.1-1.6,3.8-0.2,4.7c1.9,1.2,4.4-0.8,5.8-2.1c1.6-1.4,2.4-3.7,3-5.8
		C542.3,125.9,542.8,123.6,542,122.8z"/>
	<path d="M577.5,139.5c0,0.7-0.2,1.6-0.6,2.2c-1,1.7-2.4,2.6-4,2.6c-1.1,0-2.2-0.4-3.2-1.3c-0.8-0.7-1.4-2.4-2.6-2.3
		c-1,0-3.3,1-4,1.8c-1.6,1.6-3.6,3-5.7,3c-0.8,0-1.7-0.2-2.5-0.7c-1.5-0.9-2.4-1.8-2.7-3.6c-0.2-1.8-0.1-3.7,0.2-5.5
		c0.9-4.7,3.1-9.1,6-13c1.2-1.6,3.2-3.5,5.2-4c2.1-0.5,2.2,1.4,2.2,3.1c1-0.1,1.8-0.7,2.7,0.1c0.8,0.7,0.6,2,0.6,3
		c0.3,3.8,0.9,6.3,1.4,9.1l0.3,0.9c0.6,2.1,2.2,4.1,4.4,3.1C576.8,137.2,577.5,138.2,577.5,139.5z M565.1,132.1
		c0.1-1.7-0.3-3.8-0.4-5.1c-0.2-2.2-1.7-1.5-3-0.4c-2.9,2.7-4.6,7.3-4.6,11.2c0,1.5,0.6,2.1,1.4,2.1c0.9,0,2-0.6,2.9-1.4
		c1.6-1.4,2.7-2.9,3.6-4.9L565.1,132.1z"/>
	<path d="M580.6,123.3c0.6-0.9,2.2-1,3-0.6c1,0.5,1.2,3.2,2.2,2.8c0.5-0.2,1.2-1.5,1.4-2c0.4-0.8,0.9-1.6,1.4-2.3
		c0.9-1.2,2.4-2.9,4-2.8c1.4,0.1,2.9,1.4,3.6,2.5c0.8,1.2,0.9,3.5-1.2,3.1c-0.8-0.1-1.2-0.6-2.1-0.6c-0.8,0-1.3,1-2.3,2.3
		c-1.4,1.9-2.3,3.7-3,5.9c-1,3.1-1.7,5.4-2.1,8.6c-0.3,1.9-0.7,4.5-2.8,5.3c-2.2,0.8-2.7-1.4-2.6-3c0.2-2.2,0.3-4.5,0.3-6.8
		c0-1.4-0.1-3-0.1-4.5C580.3,130.3,579.9,124.3,580.6,123.3z"/>
</g>
</svg>
