<?xml version="1.0" encoding="utf-8"?>
<!-- Generator: Adobe Illustrator 21.0.0, SVG Export Plug-In . SVG Version: 6.00 Build 0)  -->
<svg version="1.1" id="Layer_1" xmlns="http://www.w3.org/2000/svg" xmlns:xlink="http://www.w3.org/1999/xlink"
	 viewBox="0 0 512 512">
<g>
	<g>
		<path  d="M291.5,329.3c-14.4,0-26,11.7-26,26c0,14.4,11.7,26,26,26c14.4,0,26-11.7,26-26
			C317.6,341,305.9,329.3,291.5,329.3z M291.5,364.7c-5.2,0-9.4-4.2-9.4-9.4c0-5.2,4.2-9.4,9.4-9.4s9.4,4.2,9.4,9.4
			S296.7,364.7,291.5,364.7z"/>
	</g>
</g>
<g>
	<g>
		<path  d="M426.2,49.4l3.5-10.4c1.5-4.4-0.9-9.1-5.2-10.6c-4.4-1.5-9.1,0.9-10.6,5.2L410.4,44
			c-6.1-0.5-12.2,0.6-17.9,3.4c-8.2,4-14.3,11-17.2,19.7l-32.7,96.2h-10.1l-1.7-120.9c-0.2-11.2-9.4-20.4-20.7-20.4
			c-11.2,0-20.5,9.1-20.7,20.4l-1.7,120.9h-19.1V66c0-1.7-0.5-3.3-1.4-4.6L228.6,3.7c-1.5-2.3-4.1-3.7-6.9-3.7s-5.4,1.4-6.9,3.7
			l-38.7,57.7c-0.9,1.4-1.4,3-1.4,4.6v97.3h-20.3c-4.6,0-8.3,3.7-8.3,8.3c0,4.6,3.7,8.3,8.3,8.3h1.7v28.1h-32.2
			c-29.5,0-53.6,24-53.6,53.6v122.1c0,29.5,24,53.6,53.6,53.6H156v26.3c0,26.6,21.7,48.3,48.3,48.3h175.6
			c26.6,0,48.3-21.7,48.3-48.3V180h1.7c4.6,0,8.3-3.7,8.3-8.3c0-4.6-3.7-8.3-8.3-8.3h-15.1L440,89.1C445.1,74,439,57.7,426.2,49.4z
			 M156,389.6h-29.2c-4.9,0-8.8-4-8.8-8.8V264.7c0-4.9,4-8.8,8.8-8.8H156V389.6z M156,239.2h-29.2c-14.1,0-25.5,11.4-25.5,25.5
			v116.1c0,14.1,11.4,25.5,25.5,25.5H156v14.4h-32.2c-20.4,0-36.9-16.6-36.9-36.9V261.7c0-20.4,16.6-36.9,36.9-36.9H156V239.2z
			 M372,128.5l33.1,11.3l-8,23.6h-37L372,128.5z M306.1,42.7c0-2.2,1.8-4,4-4c2.2,0,4,1.8,4,4l1.7,120.6h-11.4L306.1,42.7z
			 M293.5,180c0.5,0.1,1,0.3,1.5,0.3v94.8c0,4.5-3.7,8.2-8.2,8.2c-4.5,0-8.2-3.7-8.2-8.2v-26.8c0-13.7-11.2-24.9-24.9-24.9
			s-24.9,11.2-24.9,24.9v52c0,4.5-3.7,8.2-8.2,8.2s-8.2-3.7-8.2-8.2V180H293.5z M252,163.3h-22V82c7.4-0.6,14.8-2,22-4.1V163.3z
			 M221.7,23.3l8.3,12.4c-2.7,0.8-5.4,1.2-8.3,1.2c-2.8,0-5.6-0.4-8.3-1.2L221.7,23.3z M203.9,49.9c5.6,2.4,11.6,3.7,17.8,3.7
			c6.2,0,12.2-1.3,17.8-3.7l8,12c-16.8,5.1-34.9,5.1-51.7,0L203.9,49.9z M191.3,77.9c7.2,2.1,14.6,3.5,22,4.1v81.3h-22V77.9z
			 M411.5,463.7L411.5,463.7c0,17.4-14.2,31.6-31.6,31.6H204.3c-17.4,0-31.6-14.2-31.6-31.6V180h22.8v120.3
			c0,13.7,11.2,24.9,24.9,24.9c13.7,0,24.9-11.2,24.9-24.9v-52c0-4.5,3.7-8.2,8.2-8.2c4.5,0,8.2,3.7,8.2,8.2v26.8
			c0,13.7,11.2,24.9,24.9,24.9s24.9-11.2,24.9-24.9v-94.7l99.9-0.4V463.7z M424.2,83.7L410.5,124l-33.1-11.3l13.7-40.2
			c1.5-4.4,4.6-8,8.8-10.1c4.2-2.1,8.9-2.4,13.4-0.9C422.4,64.6,427.3,74.6,424.2,83.7z"/>
	</g>
</g>
</svg>
