<?xml version="1.0" encoding="utf-8"?>
<!-- Generator: Adobe Illustrator 21.0.0, SVG Export Plug-In . SVG Version: 6.00 Build 0)  -->
<svg version="1.1" id="Layer_1" xmlns="http://www.w3.org/2000/svg" xmlns:xlink="http://www.w3.org/1999/xlink" x="0px" y="0px"
	 viewBox="0 0 295.2 295.2">
<g>
	<g>
		<g>
			<path  d="M276.2,26.2H19c-10.5,0-19,8.5-19,19v171.4c0,10.5,8.5,19,19,19h85.7v23.8H71.4v9.5h33.3h85.7h33.3v-9.5
				h-33.3v-23.8h85.7c10.5,0,19-8.5,19-19V45.2C295.2,34.7,286.7,26.2,276.2,26.2z M181,259.5h-66.7v-23.8H181V259.5z M285.7,216.7
				c0,5.3-4.3,9.5-9.5,9.5h-85.7h-85.7H19c-5.3,0-9.5-4.3-9.5-9.5V45.2c0-5.3,4.3-9.5,9.5-9.5h257.1c5.3,0,9.5,4.3,9.5,9.5V216.7z"
				/>
			<path  d="M19,216.7h257.1V45.2H19V216.7z M28.6,54.8h238.1v152.4H28.6V54.8z"/>
			<circle  cx="42.9" cy="69" r="4.8"/>
			<circle  cx="57.1" cy="69" r="4.8"/>
			<circle  cx="71.4" cy="69" r="4.8"/>
			<path  d="M38.1,140.5h66.7V83.3H38.1V140.5z M47.6,92.9h47.6V131H47.6V92.9z"/>
			<path  d="M114.3,140.5H181V83.3h-66.7V140.5z M123.8,92.9h47.6V131h-47.6V92.9z"/>
			<path  d="M190.5,140.5h66.7V83.3h-66.7L190.5,140.5L190.5,140.5z M200,92.9h47.6V131H200V92.9z"/>
			<rect x="38.1" y="150"  width="142.9" height="9.5"/>
			<rect x="38.1" y="169"  width="142.9" height="9.5"/>
			<rect x="38.1" y="188.1"  width="142.9" height="9.5"/>
			<rect x="195.2" y="150"  width="61.9" height="9.5"/>
			<rect x="195.2" y="169"  width="61.9" height="9.5"/>
			<rect x="195.2" y="188.1"  width="61.9" height="9.5"/>
		</g>
	</g>
</g>
</svg>
